<svg width="367" height="35" viewBox="0 0 367 35" fill="none" xmlns="http://www.w3.org/2000/svg">
<path d="M18.648 29H14.728L5.852 15.588V29H1.932V9.428H5.852L14.728 22.868V9.428H18.648V29ZM24.5098 11.64C23.8192 11.64 23.2405 11.4253 22.7738 10.996C22.3258 10.548 22.1018 9.99733 22.1018 9.344C22.1018 8.69067 22.3258 8.14933 22.7738 7.72C23.2405 7.272 23.8192 7.048 24.5098 7.048C25.2005 7.048 25.7698 7.272 26.2178 7.72C26.6845 8.14933 26.9178 8.69067 26.9178 9.344C26.9178 9.99733 26.6845 10.548 26.2178 10.996C25.7698 11.4253 25.2005 11.64 24.5098 11.64ZM26.4418 13.488V29H22.5218V13.488H26.4418ZM39.4988 29L34.2348 22.392V29H30.3148V8.28H34.2348V20.068L39.4428 13.488H44.5388L37.7068 21.272L44.5948 29H39.4988ZM53.5544 29.252C52.061 29.252 50.717 28.9253 49.5224 28.272C48.3277 27.6 47.385 26.6573 46.6944 25.444C46.0224 24.2307 45.6864 22.8307 45.6864 21.244C45.6864 19.6573 46.0317 18.2573 46.7224 17.044C47.4317 15.8307 48.393 14.8973 49.6064 14.244C50.8197 13.572 52.173 13.236 53.6664 13.236C55.1597 13.236 56.513 13.572 57.7264 14.244C58.9397 14.8973 59.8917 15.8307 60.5824 17.044C61.2917 18.2573 61.6464 19.6573 61.6464 21.244C61.6464 22.8307 61.2824 24.2307 60.5544 25.444C59.845 26.6573 58.8744 27.6 57.6424 28.272C56.429 28.9253 55.0664 29.252 53.5544 29.252ZM53.5544 25.836C54.2637 25.836 54.9264 25.668 55.5424 25.332C56.177 24.9773 56.681 24.4547 57.0544 23.764C57.4277 23.0733 57.6144 22.2333 57.6144 21.244C57.6144 19.7693 57.2224 18.64 56.4384 17.856C55.673 17.0533 54.7304 16.652 53.6104 16.652C52.4904 16.652 51.5477 17.0533 50.7824 17.856C50.0357 18.64 49.6624 19.7693 49.6624 21.244C49.6624 22.7187 50.0264 23.8573 50.7544 24.66C51.501 25.444 52.4344 25.836 53.5544 25.836ZM92.5017 9.456V29H88.5817V16.288L83.3457 29H80.3777L75.1137 16.288V29H71.1937V9.456H75.6457L81.8617 23.988L88.0777 9.456H92.5017ZM103.265 29.252C101.772 29.252 100.428 28.9253 99.2333 28.272C98.0386 27.6 97.096 26.6573 96.4053 25.444C95.7333 24.2307 95.3973 22.8307 95.3973 21.244C95.3973 19.6573 95.7426 18.2573 96.4333 17.044C97.1426 15.8307 98.104 14.8973 99.3173 14.244C100.531 13.572 101.884 13.236 103.377 13.236C104.871 13.236 106.224 13.572 107.437 14.244C108.651 14.8973 109.603 15.8307 110.293 17.044C111.003 18.2573 111.357 19.6573 111.357 21.244C111.357 22.8307 110.993 24.2307 110.265 25.444C109.556 26.6573 108.585 27.6 107.353 28.272C106.14 28.9253 104.777 29.252 103.265 29.252ZM103.265 25.836C103.975 25.836 104.637 25.668 105.253 25.332C105.888 24.9773 106.392 24.4547 106.765 23.764C107.139 23.0733 107.325 22.2333 107.325 21.244C107.325 19.7693 106.933 18.64 106.149 17.856C105.384 17.0533 104.441 16.652 103.321 16.652C102.201 16.652 101.259 17.0533 100.493 17.856C99.7466 18.64 99.3733 19.7693 99.3733 21.244C99.3733 22.7187 99.7373 23.8573 100.465 24.66C101.212 25.444 102.145 25.836 103.265 25.836ZM122.829 13.264C124.677 13.264 126.17 13.852 127.309 15.028C128.447 16.1853 129.017 17.8093 129.017 19.9V29H125.097V20.432C125.097 19.2 124.789 18.2573 124.173 17.604C123.557 16.932 122.717 16.596 121.653 16.596C120.57 16.596 119.711 16.932 119.077 17.604C118.461 18.2573 118.153 19.2 118.153 20.432V29H114.233V13.488H118.153V15.42C118.675 14.748 119.338 14.2253 120.141 13.852C120.962 13.46 121.858 13.264 122.829 13.264ZM137.309 16.708V24.212C137.309 24.7347 137.43 25.1173 137.673 25.36C137.934 25.584 138.363 25.696 138.961 25.696H140.781V29H138.317C135.013 29 133.361 27.3947 133.361 24.184V16.708H131.513V13.488H133.361V9.652H137.309V13.488H140.781V16.708H137.309ZM158.02 20.908C158.02 21.468 157.983 21.972 157.908 22.42H146.568C146.661 23.54 147.053 24.4173 147.744 25.052C148.435 25.6867 149.284 26.004 150.292 26.004C151.748 26.004 152.784 25.3787 153.4 24.128H157.628C157.18 25.6213 156.321 26.8533 155.052 27.824C153.783 28.776 152.224 29.252 150.376 29.252C148.883 29.252 147.539 28.9253 146.344 28.272C145.168 27.6 144.244 26.6573 143.572 25.444C142.919 24.2307 142.592 22.8307 142.592 21.244C142.592 19.6387 142.919 18.2293 143.572 17.016C144.225 15.8027 145.14 14.8693 146.316 14.216C147.492 13.5627 148.845 13.236 150.376 13.236C151.851 13.236 153.167 13.5533 154.324 14.188C155.5 14.8227 156.405 15.728 157.04 16.904C157.693 18.0613 158.02 19.396 158.02 20.908ZM153.96 19.788C153.941 18.78 153.577 17.9773 152.868 17.38C152.159 16.764 151.291 16.456 150.264 16.456C149.293 16.456 148.472 16.7547 147.8 17.352C147.147 17.9307 146.745 18.7427 146.596 19.788H153.96ZM164.465 25.78H171.381V29H160.013V25.836L166.789 16.708H160.041V13.488H171.297V16.652L164.465 25.78ZM186.344 17.352V20.656H174.472V17.352H186.344ZM204.349 15.336C203.901 14.5147 203.285 13.8893 202.501 13.46C201.717 13.0307 200.802 12.816 199.757 12.816C198.599 12.816 197.573 13.0773 196.677 13.6C195.781 14.1227 195.081 14.8693 194.577 15.84C194.073 16.8107 193.821 17.9307 193.821 19.2C193.821 20.5067 194.073 21.6453 194.577 22.616C195.099 23.5867 195.818 24.3333 196.733 24.856C197.647 25.3787 198.711 25.64 199.925 25.64C201.418 25.64 202.641 25.248 203.593 24.464C204.545 23.6613 205.17 22.5507 205.469 21.132H198.749V18.136H209.333V21.552C209.071 22.9147 208.511 24.1747 207.653 25.332C206.794 26.4893 205.683 27.4227 204.321 28.132C202.977 28.8227 201.465 29.168 199.785 29.168C197.899 29.168 196.191 28.748 194.661 27.908C193.149 27.0493 191.954 25.864 191.077 24.352C190.218 22.84 189.789 21.1227 189.789 19.2C189.789 17.2773 190.218 15.56 191.077 14.048C191.954 12.5173 193.149 11.332 194.661 10.492C196.191 9.63333 197.89 9.204 199.757 9.204C201.959 9.204 203.873 9.74533 205.497 10.828C207.121 11.892 208.241 13.3947 208.857 15.336H204.349ZM216.153 15.896C216.657 15.0747 217.31 14.4307 218.113 13.964C218.934 13.4973 219.867 13.264 220.913 13.264V17.38H219.877C218.645 17.38 217.711 17.6693 217.077 18.248C216.461 18.8267 216.153 19.8347 216.153 21.272V29H212.233V13.488H216.153V15.896ZM222.545 21.188C222.545 19.62 222.853 18.2293 223.469 17.016C224.104 15.8027 224.953 14.8693 226.017 14.216C227.1 13.5627 228.304 13.236 229.629 13.236C230.786 13.236 231.794 13.4693 232.653 13.936C233.53 14.4027 234.23 14.9907 234.753 15.7V13.488H238.701V29H234.753V26.732C234.249 27.46 233.549 28.0667 232.653 28.552C231.776 29.0187 230.758 29.252 229.601 29.252C228.294 29.252 227.1 28.916 226.017 28.244C224.953 27.572 224.104 26.6293 223.469 25.416C222.853 24.184 222.545 22.7747 222.545 21.188ZM234.753 21.244C234.753 20.292 234.566 19.48 234.193 18.808C233.82 18.1173 233.316 17.5947 232.681 17.24C232.046 16.8667 231.365 16.68 230.637 16.68C229.909 16.68 229.237 16.8573 228.621 17.212C228.005 17.5667 227.501 18.0893 227.109 18.78C226.736 19.452 226.549 20.2547 226.549 21.188C226.549 22.1213 226.736 22.9427 227.109 23.652C227.501 24.3427 228.005 24.8747 228.621 25.248C229.256 25.6213 229.928 25.808 230.637 25.808C231.365 25.808 232.046 25.6307 232.681 25.276C233.316 24.9027 233.82 24.38 234.193 23.708C234.566 23.0173 234.753 22.196 234.753 21.244ZM251.266 13.264C252.442 13.264 253.487 13.5253 254.402 14.048C255.316 14.552 256.026 15.308 256.53 16.316C257.052 17.3053 257.314 18.5 257.314 19.9V29H253.394V20.432C253.394 19.2 253.086 18.2573 252.47 17.604C251.854 16.932 251.014 16.596 249.95 16.596C248.867 16.596 248.008 16.932 247.374 17.604C246.758 18.2573 246.45 19.2 246.45 20.432V29H242.53V8.28H246.45V15.42C246.954 14.748 247.626 14.2253 248.466 13.852C249.306 13.46 250.239 13.264 251.266 13.264ZM260.033 21.188C260.033 19.62 260.341 18.2293 260.957 17.016C261.592 15.8027 262.441 14.8693 263.505 14.216C264.588 13.5627 265.792 13.236 267.117 13.236C268.275 13.236 269.283 13.4693 270.141 13.936C271.019 14.4027 271.719 14.9907 272.241 15.7V13.488H276.189V29H272.241V26.732C271.737 27.46 271.037 28.0667 270.141 28.552C269.264 29.0187 268.247 29.252 267.089 29.252C265.783 29.252 264.588 28.916 263.505 28.244C262.441 27.572 261.592 26.6293 260.957 25.416C260.341 24.184 260.033 22.7747 260.033 21.188ZM272.241 21.244C272.241 20.292 272.055 19.48 271.681 18.808C271.308 18.1173 270.804 17.5947 270.169 17.24C269.535 16.8667 268.853 16.68 268.125 16.68C267.397 16.68 266.725 16.8573 266.109 17.212C265.493 17.5667 264.989 18.0893 264.597 18.78C264.224 19.452 264.037 20.2547 264.037 21.188C264.037 22.1213 264.224 22.9427 264.597 23.652C264.989 24.3427 265.493 24.8747 266.109 25.248C266.744 25.6213 267.416 25.808 268.125 25.808C268.853 25.808 269.535 25.6307 270.169 25.276C270.804 24.9027 271.308 24.38 271.681 23.708C272.055 23.0173 272.241 22.196 272.241 21.244ZM299.282 13.264C301.186 13.264 302.717 13.852 303.874 15.028C305.05 16.1853 305.638 17.8093 305.638 19.9V29H301.718V20.432C301.718 19.2187 301.41 18.2947 300.794 17.66C300.178 17.0067 299.338 16.68 298.274 16.68C297.21 16.68 296.361 17.0067 295.726 17.66C295.11 18.2947 294.802 19.2187 294.802 20.432V29H290.882V20.432C290.882 19.2187 290.574 18.2947 289.958 17.66C289.342 17.0067 288.502 16.68 287.438 16.68C286.355 16.68 285.497 17.0067 284.862 17.66C284.246 18.2947 283.938 19.2187 283.938 20.432V29H280.018V13.488H283.938V15.364C284.442 14.7107 285.086 14.1973 285.87 13.824C286.673 13.4507 287.55 13.264 288.502 13.264C289.715 13.264 290.798 13.5253 291.75 14.048C292.702 14.552 293.439 15.28 293.962 16.232C294.466 15.336 295.194 14.6173 296.146 14.076C297.117 13.5347 298.162 13.264 299.282 13.264Z" fill="#131316"/>
<path d="M316.417 9.57748L326.776 2.99977" stroke="#4891FF" stroke-width="6" stroke-linecap="round"/>
</svg>
