<svg width="330" height="33" viewBox="0 0 330 33" fill="none" xmlns="http://www.w3.org/2000/svg">
<path d="M18.648 29.3403H14.728L5.852 15.9283V29.3403H1.932V9.76827H5.852L14.728 23.2083V9.76827H18.648V29.3403ZM24.5098 11.9803C23.8192 11.9803 23.2405 11.7656 22.7738 11.3363C22.3258 10.8883 22.1018 10.3376 22.1018 9.68427C22.1018 9.03094 22.3258 8.4896 22.7738 8.06027C23.2405 7.61227 23.8192 7.38827 24.5098 7.38827C25.2005 7.38827 25.7698 7.61227 26.2178 8.06027C26.6845 8.4896 26.9178 9.03094 26.9178 9.68427C26.9178 10.3376 26.6845 10.8883 26.2178 11.3363C25.7698 11.7656 25.2005 11.9803 24.5098 11.9803ZM26.4418 13.8283V29.3403H22.5218V13.8283H26.4418ZM39.4988 29.3403L34.2348 22.7323V29.3403H30.3148V8.62027H34.2348V20.4083L39.4428 13.8283H44.5388L37.7068 21.6123L44.5948 29.3403H39.4988ZM53.5544 29.5923C52.061 29.5923 50.717 29.2656 49.5224 28.6123C48.3277 27.9403 47.385 26.9976 46.6944 25.7843C46.0224 24.5709 45.6864 23.1709 45.6864 21.5843C45.6864 19.9976 46.0317 18.5976 46.7224 17.3843C47.4317 16.1709 48.393 15.2376 49.6064 14.5843C50.8197 13.9123 52.173 13.5763 53.6664 13.5763C55.1597 13.5763 56.513 13.9123 57.7264 14.5843C58.9397 15.2376 59.8917 16.1709 60.5824 17.3843C61.2917 18.5976 61.6464 19.9976 61.6464 21.5843C61.6464 23.1709 61.2824 24.5709 60.5544 25.7843C59.845 26.9976 58.8744 27.9403 57.6424 28.6123C56.429 29.2656 55.0664 29.5923 53.5544 29.5923ZM53.5544 26.1763C54.2637 26.1763 54.9264 26.0083 55.5424 25.6723C56.177 25.3176 56.681 24.7949 57.0544 24.1043C57.4277 23.4136 57.6144 22.5736 57.6144 21.5843C57.6144 20.1096 57.2224 18.9803 56.4384 18.1963C55.673 17.3936 54.7304 16.9923 53.6104 16.9923C52.4904 16.9923 51.5477 17.3936 50.7824 18.1963C50.0357 18.9803 49.6624 20.1096 49.6624 21.5843C49.6624 23.0589 50.0264 24.1976 50.7544 25.0003C51.501 25.7843 52.4344 26.1763 53.5544 26.1763ZM92.5017 9.79627V29.3403H88.5817V16.6283L83.3457 29.3403H80.3777L75.1137 16.6283V29.3403H71.1937V9.79627H75.6457L81.8617 24.3283L88.0777 9.79627H92.5017ZM103.265 29.5923C101.772 29.5923 100.428 29.2656 99.2333 28.6123C98.0386 27.9403 97.096 26.9976 96.4053 25.7843C95.7333 24.5709 95.3973 23.1709 95.3973 21.5843C95.3973 19.9976 95.7426 18.5976 96.4333 17.3843C97.1426 16.1709 98.104 15.2376 99.3173 14.5843C100.531 13.9123 101.884 13.5763 103.377 13.5763C104.871 13.5763 106.224 13.9123 107.437 14.5843C108.651 15.2376 109.603 16.1709 110.293 17.3843C111.003 18.5976 111.357 19.9976 111.357 21.5843C111.357 23.1709 110.993 24.5709 110.265 25.7843C109.556 26.9976 108.585 27.9403 107.353 28.6123C106.14 29.2656 104.777 29.5923 103.265 29.5923ZM103.265 26.1763C103.975 26.1763 104.637 26.0083 105.253 25.6723C105.888 25.3176 106.392 24.7949 106.765 24.1043C107.139 23.4136 107.325 22.5736 107.325 21.5843C107.325 20.1096 106.933 18.9803 106.149 18.1963C105.384 17.3936 104.441 16.9923 103.321 16.9923C102.201 16.9923 101.259 17.3936 100.493 18.1963C99.7466 18.9803 99.3733 20.1096 99.3733 21.5843C99.3733 23.0589 99.7373 24.1976 100.465 25.0003C101.212 25.7843 102.145 26.1763 103.265 26.1763ZM122.829 13.6043C124.677 13.6043 126.17 14.1923 127.309 15.3683C128.447 16.5256 129.017 18.1496 129.017 20.2403V29.3403H125.097V20.7723C125.097 19.5403 124.789 18.5976 124.173 17.9443C123.557 17.2723 122.717 16.9363 121.653 16.9363C120.57 16.9363 119.711 17.2723 119.077 17.9443C118.461 18.5976 118.153 19.5403 118.153 20.7723V29.3403H114.233V13.8283H118.153V15.7603C118.675 15.0883 119.338 14.5656 120.141 14.1923C120.962 13.8003 121.858 13.6043 122.829 13.6043ZM137.309 17.0483V24.5523C137.309 25.0749 137.43 25.4576 137.673 25.7003C137.934 25.9243 138.363 26.0363 138.961 26.0363H140.781V29.3403H138.317C135.013 29.3403 133.361 27.7349 133.361 24.5243V17.0483H131.513V13.8283H133.361V9.99227H137.309V13.8283H140.781V17.0483H137.309ZM158.02 21.2483C158.02 21.8083 157.983 22.3123 157.908 22.7603H146.568C146.661 23.8803 147.053 24.7576 147.744 25.3923C148.435 26.0269 149.284 26.3443 150.292 26.3443C151.748 26.3443 152.784 25.7189 153.4 24.4683H157.628C157.18 25.9616 156.321 27.1936 155.052 28.1643C153.783 29.1163 152.224 29.5923 150.376 29.5923C148.883 29.5923 147.539 29.2656 146.344 28.6123C145.168 27.9403 144.244 26.9976 143.572 25.7843C142.919 24.5709 142.592 23.1709 142.592 21.5843C142.592 19.9789 142.919 18.5696 143.572 17.3563C144.225 16.1429 145.14 15.2096 146.316 14.5563C147.492 13.9029 148.845 13.5763 150.376 13.5763C151.851 13.5763 153.167 13.8936 154.324 14.5283C155.5 15.1629 156.405 16.0683 157.04 17.2443C157.693 18.4016 158.02 19.7363 158.02 21.2483ZM153.96 20.1283C153.941 19.1203 153.577 18.3176 152.868 17.7203C152.159 17.1043 151.291 16.7963 150.264 16.7963C149.293 16.7963 148.472 17.0949 147.8 17.6923C147.147 18.2709 146.745 19.0829 146.596 20.1283H153.96ZM164.465 26.1203H171.381V29.3403H160.013V26.1763L166.789 17.0483H160.041V13.8283H171.297V16.9923L164.465 26.1203ZM186.344 17.6923V20.9963H174.472V17.6923H186.344ZM204.349 15.6763C203.901 14.8549 203.285 14.2296 202.501 13.8003C201.717 13.3709 200.802 13.1563 199.757 13.1563C198.599 13.1563 197.573 13.4176 196.677 13.9403C195.781 14.4629 195.081 15.2096 194.577 16.1803C194.073 17.1509 193.821 18.2709 193.821 19.5403C193.821 20.8469 194.073 21.9856 194.577 22.9563C195.099 23.9269 195.818 24.6736 196.733 25.1963C197.647 25.7189 198.711 25.9803 199.925 25.9803C201.418 25.9803 202.641 25.5883 203.593 24.8043C204.545 24.0016 205.17 22.8909 205.469 21.4723H198.749V18.4763H209.333V21.8923C209.071 23.2549 208.511 24.5149 207.653 25.6723C206.794 26.8296 205.683 27.7629 204.321 28.4723C202.977 29.1629 201.465 29.5083 199.785 29.5083C197.899 29.5083 196.191 29.0883 194.661 28.2483C193.149 27.3896 191.954 26.2043 191.077 24.6923C190.218 23.1803 189.789 21.4629 189.789 19.5403C189.789 17.6176 190.218 15.9003 191.077 14.3883C191.954 12.8576 193.149 11.6723 194.661 10.8323C196.191 9.9736 197.89 9.54427 199.757 9.54427C201.959 9.54427 203.873 10.0856 205.497 11.1683C207.121 12.2323 208.241 13.7349 208.857 15.6763H204.349ZM216.153 16.2363C216.657 15.4149 217.31 14.7709 218.113 14.3043C218.934 13.8376 219.867 13.6043 220.913 13.6043V17.7203H219.877C218.645 17.7203 217.711 18.0096 217.077 18.5883C216.461 19.1669 216.153 20.1749 216.153 21.6123V29.3403H212.233V13.8283H216.153V16.2363ZM222.545 21.5283C222.545 19.9603 222.853 18.5696 223.469 17.3563C224.104 16.1429 224.953 15.2096 226.017 14.5563C227.1 13.9029 228.304 13.5763 229.629 13.5763C230.786 13.5763 231.794 13.8096 232.653 14.2763C233.53 14.7429 234.23 15.3309 234.753 16.0403V13.8283H238.701V29.3403H234.753V27.0723C234.249 27.8003 233.549 28.4069 232.653 28.8923C231.776 29.3589 230.758 29.5923 229.601 29.5923C228.294 29.5923 227.1 29.2563 226.017 28.5843C224.953 27.9123 224.104 26.9696 223.469 25.7563C222.853 24.5243 222.545 23.1149 222.545 21.5283ZM234.753 21.5843C234.753 20.6323 234.566 19.8203 234.193 19.1483C233.82 18.4576 233.316 17.9349 232.681 17.5803C232.046 17.2069 231.365 17.0203 230.637 17.0203C229.909 17.0203 229.237 17.1976 228.621 17.5523C228.005 17.9069 227.501 18.4296 227.109 19.1203C226.736 19.7923 226.549 20.5949 226.549 21.5283C226.549 22.4616 226.736 23.2829 227.109 23.9923C227.501 24.6829 228.005 25.2149 228.621 25.5883C229.256 25.9616 229.928 26.1483 230.637 26.1483C231.365 26.1483 232.046 25.9709 232.681 25.6163C233.316 25.2429 233.82 24.7203 234.193 24.0483C234.566 23.3576 234.753 22.5363 234.753 21.5843ZM251.266 13.6043C252.442 13.6043 253.487 13.8656 254.402 14.3883C255.316 14.8923 256.026 15.6483 256.53 16.6563C257.052 17.6456 257.314 18.8403 257.314 20.2403V29.3403H253.394V20.7723C253.394 19.5403 253.086 18.5976 252.47 17.9443C251.854 17.2723 251.014 16.9363 249.95 16.9363C248.867 16.9363 248.008 17.2723 247.374 17.9443C246.758 18.5976 246.45 19.5403 246.45 20.7723V29.3403H242.53V8.62027H246.45V15.7603C246.954 15.0883 247.626 14.5656 248.466 14.1923C249.306 13.8003 250.239 13.6043 251.266 13.6043ZM260.033 21.5283C260.033 19.9603 260.341 18.5696 260.957 17.3563C261.592 16.1429 262.441 15.2096 263.505 14.5563C264.588 13.9029 265.792 13.5763 267.117 13.5763C268.275 13.5763 269.283 13.8096 270.141 14.2763C271.019 14.7429 271.719 15.3309 272.241 16.0403V13.8283H276.189V29.3403H272.241V27.0723C271.737 27.8003 271.037 28.4069 270.141 28.8923C269.264 29.3589 268.247 29.5923 267.089 29.5923C265.783 29.5923 264.588 29.2563 263.505 28.5843C262.441 27.9123 261.592 26.9696 260.957 25.7563C260.341 24.5243 260.033 23.1149 260.033 21.5283ZM272.241 21.5843C272.241 20.6323 272.055 19.8203 271.681 19.1483C271.308 18.4576 270.804 17.9349 270.169 17.5803C269.535 17.2069 268.853 17.0203 268.125 17.0203C267.397 17.0203 266.725 17.1976 266.109 17.5523C265.493 17.9069 264.989 18.4296 264.597 19.1203C264.224 19.7923 264.037 20.5949 264.037 21.5283C264.037 22.4616 264.224 23.2829 264.597 23.9923C264.989 24.6829 265.493 25.2149 266.109 25.5883C266.744 25.9616 267.416 26.1483 268.125 26.1483C268.853 26.1483 269.535 25.9709 270.169 25.6163C270.804 25.2429 271.308 24.7203 271.681 24.0483C272.055 23.3576 272.241 22.5363 272.241 21.5843ZM299.282 13.6043C301.186 13.6043 302.717 14.1923 303.874 15.3683C305.05 16.5256 305.638 18.1496 305.638 20.2403V29.3403H301.718V20.7723C301.718 19.5589 301.41 18.6349 300.794 18.0003C300.178 17.3469 299.338 17.0203 298.274 17.0203C297.21 17.0203 296.361 17.3469 295.726 18.0003C295.11 18.6349 294.802 19.5589 294.802 20.7723V29.3403H290.882V20.7723C290.882 19.5589 290.574 18.6349 289.958 18.0003C289.342 17.3469 288.502 17.0203 287.438 17.0203C286.355 17.0203 285.497 17.3469 284.862 18.0003C284.246 18.6349 283.938 19.5589 283.938 20.7723V29.3403H280.018V13.8283H283.938V15.7043C284.442 15.0509 285.086 14.5376 285.87 14.1643C286.673 13.7909 287.55 13.6043 288.502 13.6043C289.715 13.6043 290.798 13.8656 291.75 14.3883C292.702 14.8923 293.439 15.6203 293.962 16.5723C294.466 15.6763 295.194 14.9576 296.146 14.4163C297.117 13.8749 298.162 13.6043 299.282 13.6043Z" fill="white"/>
<path d="M316.417 9.91799L326.776 3.34029" stroke="#4891FF" stroke-width="6" stroke-linecap="round"/>
</svg>
